<svg width="800" height="500" viewBox="0 0 800 500" fill="none" xmlns="http://www.w3.org/2000/svg">
  <rect width="800" height="500" fill="url(#teamGradient)"/>
  <defs>
    <linearGradient id="teamGradient" x1="0%" y1="0%" x2="100%" y2="100%">
      <stop offset="0%" style="stop-color:#F0F9FF"/>
      <stop offset="100%" style="stop-color:#E0F2FE"/>
    </linearGradient>
  </defs>
  
  <!-- Professional team silhouettes -->
  <g transform="translate(150, 150)">
    <!-- First person -->
    <circle cx="50" cy="50" r="35" fill="#0D9488" opacity="0.8"/>
    <rect x="25" y="85" width="50" height="80" rx="25" fill="#0F766E" opacity="0.7"/>
    <!-- Stethoscope representation -->
    <circle cx="35" cy="110" r="8" fill="#2563EB" opacity="0.6"/>
    <path d="M35 102 Q45 105 50 115" stroke="#2563EB" stroke-width="3" fill="none" opacity="0.6"/>
  </g>
  
  <g transform="translate(300, 140)">
    <!-- Second person -->
    <circle cx="50" cy="50" r="35" fill="#2563EB" opacity="0.8"/>
    <rect x="25" y="85" width="50" height="80" rx="25" fill="#1E40AF" opacity="0.7"/>
    <!-- Medical cross -->
    <rect x="47" y="100" width="6" height="20" fill="#FFFFFF"/>
    <rect x="40" y="107" width="20" height="6" fill="#FFFFFF"/>
  </g>
  
  <g transform="translate(450, 160)">
    <!-- Third person -->
    <circle cx="50" cy="50" r="35" fill="#059669" opacity="0.8"/>
    <rect x="25" y="85" width="50" height="80" rx="25" fill="#047857" opacity="0.7"/>
    <!-- Dental tool -->
    <rect x="45" y="95" width="3" height="25" fill="#94A3B8"/>
    <circle cx="46.5" cy="95" r="4" fill="#6B7280"/>
  </g>
  
  <g transform="translate(600, 150)">
    <!-- Fourth person -->
    <circle cx="50" cy="50" r="35" fill="#7C3AED" opacity="0.8"/>
    <rect x="25" y="85" width="50" height="80" rx="25" fill="#6D28D9" opacity="0.7"/>
    <!-- Medical badge -->
    <circle cx="50" cy="110" r="10" fill="#FBBF24" opacity="0.8"/>
  </g>
  
  <!-- Background elements -->
  <rect x="0" y="350" width="800" height="150" fill="#F1F5F9" opacity="0.5"/>
  
  <!-- Professional achievement indicators -->
  <circle cx="100" cy="400" r="20" fill="#10B981" opacity="0.3"/>
  <text x="100" y="408" text-anchor="middle" fill="#047857" font-family="Arial" font-size="12" font-weight="bold">20+</text>
  
  <circle cx="700" cy="380" r="25" fill="#3B82F6" opacity="0.3"/>
  <text x="700" y="388" text-anchor="middle" fill="#1E40AF" font-family="Arial" font-size="14" font-weight="bold">4</text>
</svg>